<svg width="261" height="58" viewBox="0 0 261 58" fill="none" xmlns="http://www.w3.org/2000/svg">
<path d="M21.0872 35.953C21.0872 35.3356 20.9922 34.7816 20.8023 34.2908C20.6281 33.7843 20.2957 33.3252 19.805 32.9136C19.3142 32.4862 18.6256 32.0667 17.7391 31.6551C16.8526 31.2435 15.7049 30.8161 14.296 30.3729C12.7288 29.8663 11.2408 29.2964 9.83191 28.6632C8.43885 28.03 7.20409 27.2939 6.12763 26.4549C5.06701 25.6 4.228 24.6106 3.61062 23.4867C3.00907 22.3627 2.7083 21.0568 2.7083 19.5687C2.7083 18.1282 3.0249 16.8222 3.65811 15.6507C4.29132 14.4635 5.17782 13.4503 6.3176 12.6113C7.45737 11.7565 8.80294 11.0995 10.3543 10.6405C11.9215 10.1814 13.6391 9.95184 15.5071 9.95184C18.0557 9.95184 20.2799 10.4109 22.1795 11.3291C24.0791 12.2472 25.5513 13.5057 26.5961 15.1046C27.6568 16.7034 28.1871 18.5318 28.1871 20.5898H21.111C21.111 19.5766 20.8973 18.6901 20.4698 17.9303C20.0582 17.1546 19.425 16.5451 18.5702 16.1019C17.7312 15.6586 16.6706 15.437 15.3883 15.437C14.1536 15.437 13.1246 15.627 12.3014 16.0069C11.4783 16.371 10.8609 16.8697 10.4493 17.5029C10.0377 18.1202 9.83191 18.8168 9.83191 19.5925C9.83191 20.1782 9.97438 20.7085 10.2593 21.1834C10.5601 21.6583 11.0033 22.1016 11.5891 22.5131C12.1748 22.9247 12.8951 23.3126 13.7499 23.6767C14.6047 24.0408 15.5941 24.3969 16.7181 24.7452C18.6019 25.3151 20.2561 25.9562 21.6808 26.6686C23.1214 27.3809 24.3245 28.1804 25.2901 29.0669C26.2558 29.9534 26.984 30.9586 27.4747 32.0825C27.9655 33.2065 28.2108 34.4808 28.2108 35.9055C28.2108 37.4094 27.918 38.755 27.3322 39.9422C26.7465 41.1295 25.8996 42.1347 24.7915 42.9579C23.6834 43.7811 22.3615 44.4064 20.826 44.8338C19.2905 45.2612 17.5729 45.4749 15.6733 45.4749C13.9636 45.4749 12.2777 45.2533 10.6155 44.81C8.95333 44.351 7.44154 43.6623 6.08014 42.7442C4.73457 41.826 3.65811 40.6546 2.85077 39.2299C2.04343 37.8052 1.63976 36.1192 1.63976 34.1721H8.78711C8.78711 35.2486 8.95333 36.1588 9.28577 36.9028C9.6182 37.6469 10.0852 38.2484 10.6867 38.7075C11.3041 39.1666 12.0323 39.499 12.8713 39.7048C13.7261 39.9106 14.6601 40.0135 15.6733 40.0135C16.908 40.0135 17.9212 39.8393 18.7127 39.4911C19.52 39.1428 20.1137 38.66 20.4936 38.0426C20.8893 37.4252 21.0872 36.7287 21.0872 35.953ZM47.8245 38.8499V19.3075H54.6632V45H48.2282L47.8245 38.8499ZM48.5843 33.5785L50.6027 33.531C50.6027 35.2407 50.4048 36.8316 50.0091 38.3038C49.6133 39.7602 49.0197 41.0266 48.2282 42.1031C47.4367 43.1637 46.4394 43.9948 45.2363 44.5963C44.0332 45.182 42.6163 45.4749 40.9858 45.4749C39.7352 45.4749 38.5796 45.3008 37.519 44.9525C36.4742 44.5884 35.5719 44.0264 34.812 43.2666C34.068 42.4909 33.4823 41.5015 33.0549 40.2984C32.6433 39.0795 32.4375 37.6152 32.4375 35.9055V19.3075H39.2762V35.953C39.2762 36.7129 39.3632 37.354 39.5374 37.8764C39.7273 38.3988 39.9885 38.8262 40.321 39.1586C40.6534 39.4911 41.0412 39.7285 41.4845 39.871C41.9436 40.0135 42.4501 40.0847 43.0042 40.0847C44.4131 40.0847 45.5212 39.7998 46.3285 39.2299C47.1517 38.66 47.7295 37.8843 48.062 36.9028C48.4102 35.9055 48.5843 34.7974 48.5843 33.5785ZM60.2671 19.3075H67.1295V46.5434C67.1295 48.4431 66.7812 50.0498 66.0847 51.3638C65.3882 52.6777 64.3829 53.675 63.069 54.3557C61.7551 55.0364 60.1642 55.3767 58.2962 55.3767C57.7105 55.3767 57.1406 55.3451 56.5865 55.2817C56.0166 55.2184 55.4309 55.1155 54.8294 54.9731L54.8531 49.7253C55.2331 49.7886 55.6051 49.8361 55.9692 49.8678C56.3174 49.9153 56.6736 49.939 57.0377 49.939C57.7501 49.939 58.3437 49.8203 58.8186 49.5829C59.2935 49.3454 59.6497 48.9734 59.8871 48.4668C60.1404 47.9761 60.2671 47.335 60.2671 46.5434V19.3075ZM59.7209 12.6113C59.7209 11.614 60.0692 10.7908 60.7657 10.1418C61.4781 9.49276 62.4121 9.16824 63.5677 9.16824C64.7391 9.16824 65.6731 9.49276 66.3696 10.1418C67.0662 10.7908 67.4144 11.614 67.4144 12.6113C67.4144 13.6086 67.0662 14.4318 66.3696 15.0808C65.6731 15.7299 64.7391 16.0544 63.5677 16.0544C62.4121 16.0544 61.4781 15.7299 60.7657 15.0808C60.0692 14.4318 59.7209 13.6086 59.7209 12.6113ZM84.3924 45.4749C82.3978 45.4749 80.6089 45.1583 79.0259 44.5251C77.4429 43.8761 76.0973 42.9816 74.9892 41.8419C73.8969 40.7021 73.0579 39.3803 72.4722 37.8764C71.8865 36.3567 71.5936 34.742 71.5936 33.0323V32.0825C71.5936 30.1354 71.8706 28.3545 72.4247 26.7398C72.9788 25.1251 73.7703 23.7242 74.7992 22.5369C75.844 21.3496 77.1105 20.4394 78.5985 19.8062C80.0865 19.1571 81.7645 18.8326 83.6325 18.8326C85.453 18.8326 87.0677 19.1334 88.4766 19.7349C89.8855 20.3365 91.0648 21.1913 92.0146 22.2994C92.9803 23.4075 93.7085 24.7373 94.1992 26.2887C94.6899 27.8242 94.9353 29.5339 94.9353 31.4176V34.2671H74.5143V29.708H88.2154V29.1856C88.2154 28.2358 88.0412 27.3889 87.693 26.6448C87.3605 25.885 86.854 25.2834 86.1733 24.8402C85.4926 24.3969 84.6219 24.1753 83.5613 24.1753C82.659 24.1753 81.8833 24.3732 81.2342 24.7689C80.5852 25.1647 80.0549 25.7188 79.6433 26.4311C79.2475 27.1435 78.9468 27.9825 78.741 28.9481C78.551 29.8979 78.456 30.9427 78.456 32.0825V33.0323C78.456 34.0613 78.5985 35.0111 78.8834 35.8818C79.1842 36.7524 79.6037 37.5044 80.1419 38.1376C80.696 38.7708 81.3609 39.2615 82.1366 39.6098C82.9281 39.9581 83.8225 40.1322 84.8198 40.1322C86.0545 40.1322 87.2022 39.8947 88.2629 39.4198C89.3393 38.9291 90.2654 38.193 91.0411 37.2115L94.3654 40.8208C93.8272 41.5965 93.0911 42.3405 92.1571 43.0529C91.2389 43.7652 90.1308 44.351 88.8327 44.81C87.5347 45.2533 86.0545 45.4749 84.3924 45.4749ZM106.048 19.3075V45H99.1857V19.3075H106.048ZM98.7583 12.6113C98.7583 11.614 99.1066 10.7908 99.8031 10.1418C100.5 9.49276 101.434 9.16824 102.605 9.16824C103.761 9.16824 104.687 9.49276 105.383 10.1418C106.096 10.7908 106.452 11.614 106.452 12.6113C106.452 13.6086 106.096 14.4318 105.383 15.0808C104.687 15.7299 103.761 16.0544 102.605 16.0544C101.434 16.0544 100.5 15.7299 99.8031 15.0808C99.1066 14.4318 98.7583 13.6086 98.7583 12.6113ZM124.285 19.3075V24.1516H109.325V19.3075H124.285ZM113.029 12.9675H119.868V37.259C119.868 38.003 119.963 38.5729 120.153 38.9687C120.359 39.3644 120.659 39.6415 121.055 39.7998C121.451 39.9422 121.95 40.0135 122.551 40.0135C122.979 40.0135 123.359 39.9976 123.691 39.966C124.039 39.9185 124.332 39.871 124.57 39.8235L124.593 44.8575C124.008 45.0475 123.374 45.1979 122.694 45.3087C122.013 45.4195 121.261 45.4749 120.438 45.4749C118.934 45.4749 117.62 45.2295 116.496 44.7388C115.388 44.2322 114.533 43.4249 113.932 42.3168C113.33 41.2087 113.029 39.7523 113.029 37.9476V12.9675ZM126.469 32.415V31.9163C126.469 30.0325 126.738 28.2991 127.276 26.7161C127.815 25.1172 128.598 23.7321 129.627 22.5606C130.656 21.3892 131.923 20.479 133.427 19.8299C134.93 19.165 136.656 18.8326 138.603 18.8326C140.55 18.8326 142.284 19.165 143.803 19.8299C145.323 20.479 146.597 21.3892 147.626 22.5606C148.671 23.7321 149.463 25.1172 150.001 26.7161C150.539 28.2991 150.808 30.0325 150.808 31.9163V32.415C150.808 34.2829 150.539 36.0163 150.001 37.6152C149.463 39.1982 148.671 40.5834 147.626 41.7706C146.597 42.9421 145.331 43.8523 143.827 44.5013C142.323 45.1504 140.598 45.4749 138.651 45.4749C136.703 45.4749 134.97 45.1504 133.45 44.5013C131.946 43.8523 130.672 42.9421 129.627 41.7706C128.598 40.5834 127.815 39.1982 127.276 37.6152C126.738 36.0163 126.469 34.2829 126.469 32.415ZM133.308 31.9163V32.415C133.308 33.4914 133.403 34.4966 133.593 35.4306C133.783 36.3646 134.084 37.1878 134.495 37.9001C134.923 38.5967 135.477 39.1428 136.157 39.5386C136.838 39.9343 137.669 40.1322 138.651 40.1322C139.6 40.1322 140.416 39.9343 141.096 39.5386C141.777 39.1428 142.323 38.5967 142.735 37.9001C143.146 37.1878 143.447 36.3646 143.637 35.4306C143.843 34.4966 143.946 33.4914 143.946 32.415V31.9163C143.946 30.8715 143.843 29.89 143.637 28.9719C143.447 28.0379 143.138 27.2147 142.711 26.5024C142.299 25.7742 141.753 25.2043 141.073 24.7927C140.392 24.3811 139.569 24.1753 138.603 24.1753C137.637 24.1753 136.814 24.3811 136.134 24.7927C135.469 25.2043 134.923 25.7742 134.495 26.5024C134.084 27.2147 133.783 28.0379 133.593 28.9719C133.403 29.89 133.308 30.8715 133.308 31.9163Z" fill="white"/>
<g filter="url(#filter0_d_1481_1309)">
<path d="M155.563 33.2202H146.754V27.6638H155.563C156.925 27.6638 158.033 27.4422 158.888 26.9989C159.743 26.5399 160.368 25.9066 160.764 25.0993C161.159 24.292 161.357 23.3817 161.357 22.3686C161.357 21.3396 161.159 20.3819 160.764 19.4954C160.368 18.6089 159.743 17.8965 158.888 17.3583C158.033 16.8201 156.925 16.551 155.563 16.551H149.223V45.5441H142.1V10.9708H155.563C158.27 10.9708 160.59 11.4616 162.521 12.443C164.468 13.4087 165.956 14.7463 166.985 16.456C168.014 18.1657 168.528 20.1207 168.528 22.3211C168.528 24.5532 168.014 26.4845 166.985 28.115C165.956 29.7455 164.468 31.004 162.521 31.8905C160.59 32.777 158.27 33.2202 155.563 33.2202ZM180.235 19.8516V45.5441H173.372V19.8516H180.235ZM172.945 13.1554C172.945 12.1581 173.293 11.3349 173.99 10.6859C174.686 10.0368 175.62 9.71231 176.792 9.71231C177.947 9.71231 178.873 10.0368 179.57 10.6859C180.282 11.3349 180.639 12.1581 180.639 13.1554C180.639 14.1527 180.282 14.9759 179.57 15.6249C178.873 16.2739 177.947 16.5985 176.792 16.5985C175.62 16.5985 174.686 16.2739 173.99 15.6249C173.293 14.9759 172.945 14.1527 172.945 13.1554ZM206.331 40.2014V45.5441H186.812V40.2014H206.331ZM205.951 23.7933L189.567 45.5441H184.984V41.4836L201.297 19.8516H205.951V23.7933ZM203.529 19.8516V25.218H185.364V19.8516H203.529ZM231.074 40.2014V45.5441H211.555V40.2014H231.074ZM230.694 23.7933L214.309 45.5441H209.727V41.4836L226.04 19.8516H230.694V23.7933ZM228.272 19.8516V25.218H210.107V19.8516H228.272ZM249.239 39.7502V28.3049C249.239 27.4818 249.104 26.7773 248.835 26.1916C248.566 25.59 248.147 25.1231 247.577 24.7906C247.023 24.4582 246.302 24.292 245.416 24.292C244.656 24.292 243.999 24.4265 243.445 24.6956C242.891 24.9489 242.464 25.3209 242.163 25.8117C241.862 26.2866 241.712 26.8485 241.712 27.4976H234.873C234.873 26.4053 235.126 25.3684 235.633 24.3869C236.139 23.4055 236.875 22.5427 237.841 21.7987C238.807 21.0388 239.954 20.4452 241.284 20.0178C242.63 19.5904 244.134 19.3767 245.796 19.3767C247.79 19.3767 249.563 19.7091 251.115 20.374C252.666 21.0388 253.885 22.0362 254.772 23.3659C255.674 24.6956 256.125 26.3578 256.125 28.3524V39.3465C256.125 40.7554 256.212 41.911 256.386 42.8134C256.56 43.6998 256.814 44.4755 257.146 45.1404V45.5441H250.236C249.904 44.8475 249.651 43.9769 249.476 42.9321C249.318 41.8715 249.239 40.8108 249.239 39.7502ZM250.141 29.8959L250.189 33.7664H246.366C245.463 33.7664 244.68 33.8693 244.015 34.0751C243.35 34.2808 242.804 34.5737 242.377 34.9536C241.949 35.3177 241.632 35.7451 241.427 36.2359C241.237 36.7266 241.142 37.2648 241.142 37.8506C241.142 38.4363 241.276 38.9666 241.545 39.4415C241.815 39.9006 242.202 40.2647 242.709 40.5338C243.216 40.7871 243.809 40.9137 244.49 40.9137C245.519 40.9137 246.413 40.7079 247.173 40.2963C247.933 39.8848 248.519 39.3782 248.93 38.7766C249.358 38.1751 249.579 37.6052 249.595 37.067L251.4 39.9639C251.146 40.6129 250.798 41.2857 250.355 41.9823C249.928 42.6788 249.381 43.3357 248.717 43.9531C248.052 44.5547 247.252 45.0533 246.318 45.4491C245.384 45.829 244.276 46.019 242.994 46.019C241.363 46.019 239.883 45.6945 238.554 45.0454C237.24 44.3805 236.195 43.4703 235.419 42.3147C234.659 41.1433 234.279 39.8135 234.279 38.3255C234.279 36.9799 234.533 35.7847 235.039 34.7399C235.546 33.6951 236.29 32.8166 237.271 32.1042C238.269 31.376 239.511 30.8299 240.999 30.4658C242.487 30.0858 244.213 29.8959 246.176 29.8959H250.141Z" fill="#FF3F4B"/>
</g>
<defs>
<filter id="filter0_d_1481_1309" x="137.203" y="4.2711" width="123.752" height="45.0125" filterUnits="userSpaceOnUse" color-interpolation-filters="sRGB">
<feFlood flood-opacity="0" result="BackgroundImageFix"/>
<feColorMatrix in="SourceAlpha" type="matrix" values="0 0 0 0 0 0 0 0 0 0 0 0 0 0 0 0 0 0 127 0" result="hardAlpha"/>
<feOffset dx="-0.544118" dy="-1.08824"/>
<feGaussianBlur stdDeviation="2.17647"/>
<feComposite in2="hardAlpha" operator="out"/>
<feColorMatrix type="matrix" values="0 0 0 0 0 0 0 0 0 0 0 0 0 0 0 0 0 0 0.5 0"/>
<feBlend mode="normal" in2="BackgroundImageFix" result="effect1_dropShadow_1481_1309"/>
<feBlend mode="normal" in="SourceGraphic" in2="effect1_dropShadow_1481_1309" result="shape"/>
</filter>
</defs>
</svg>
